<?xml version="1.0" encoding="utf-8"?>
<!-- Generator: Adobe Illustrator 24.0.1, SVG Export Plug-In . SVG Version: 6.00 Build 0)  -->
<svg version="1.1" id="Layer_1" xmlns="http://www.w3.org/2000/svg" xmlns:xlink="http://www.w3.org/1999/xlink" x="0px" y="0px"
	 viewBox="0 0 620.6 246.1" style="enable-background:new 0 0 620.6 246.1;" xml:space="preserve">
<style type="text/css">
	.st0{fill:#20A6DF;}
	.st1{fill:#1D509F;}
	.st2{enable-background:new    ;}
	.st3{fill:#25A6DF;}
	.st4{fill-rule:evenodd;clip-rule:evenodd;fill:#1E509E;}
	.st5{fill-rule:evenodd;clip-rule:evenodd;fill:#25A6DF;}
</style>
<title>Edinburgh_Dance_School</title>
<g id="Dancers">
	<polygon class="st0" points="136.6,0 112.2,70.4 136.6,22.5 161.7,69.8 	"/>
	<polygon class="st0" points="268.6,92.9 194.1,93.5 247.4,100.5 211.2,139.9 	"/>
	<polygon class="st0" points="0,92.9 74.5,93.5 21.2,100.5 57.3,139.9 	"/>
	<polygon class="st0" points="218.1,245.5 156.9,203 207.5,228.9 197.2,174.3 	"/>
	<polygon class="st0" points="58.5,246.1 119.8,203.6 69.2,229.5 79.5,174.9 	"/>
	<circle class="st0" cx="168.3" cy="96.6" r="11.7"/>
	<circle class="st1" cx="108" cy="97.5" r="11.7"/>
</g>
<g id="Text">
	<g class="st2">
		<path class="st3" d="M226.8,160.9v-23.8h12.8l0.5,2.2h-10.8v8.3h9.2v2.2h-9.2v8.7h11.6l-0.5,2.2H226.8z"/>
		<path class="st3" d="M258.4,147.3v-10l2.3-0.4v23.8l-2.3,0.5v-3.6c-1.5,2.5-3.7,3.8-6.6,3.8c-2.5,0-4.6-0.8-6.3-2.5
			c-1.7-1.7-2.6-3.8-2.6-6.3s0.9-4.6,2.6-6.3c1.7-1.7,3.8-2.6,6.4-2.6c1.5,0,2.8,0.3,3.8,0.9C256.7,145.1,257.6,146,258.4,147.3z
			 M251.8,145.7c-1.8,0-3.4,0.7-4.7,2c-1.3,1.3-1.9,2.9-1.9,4.9s0.6,3.5,1.9,4.8c1.3,1.3,2.9,2,4.7,2c1.9,0,3.5-0.7,4.8-2
			c1.3-1.3,1.9-2.9,1.9-4.9c0-1.9-0.6-3.5-1.9-4.9C255.3,146.3,253.7,145.7,251.8,145.7z"/>
		<path class="st3" d="M264.5,138.6l1.7-2l1.7,2l-1.7,2.1L264.5,138.6z M265.1,161.2v-16.9l2.3-0.5v16.9L265.1,161.2z"/>
		<path class="st3" d="M271.9,161.2v-16.9l2.3-0.5v2.7c0.7-1,1.4-1.7,2.3-2.2s1.9-0.7,3.1-0.7c1.5,0,2.7,0.3,3.6,1
			c0.9,0.7,1.5,1.7,1.8,3c0.1,0.8,0.2,2,0.2,3.6v9.4l-2.3,0.5v-10.3l-0.1-2.3c-0.3-2-1.5-3.1-3.6-3.1c-1.1,0-2,0.3-2.8,0.9
			c-0.8,0.6-1.5,1.3-1.8,2.3c-0.2,0.6-0.3,1.5-0.3,2.7v9.3L271.9,161.2z"/>
		<path class="st3" d="M291.8,147.5c0.8-1.3,1.8-2.3,2.9-2.9c1.1-0.6,2.3-0.9,3.8-0.9c2.6,0,4.7,0.8,6.4,2.5
			c1.7,1.7,2.6,3.8,2.6,6.3c0,2.5-0.9,4.6-2.6,6.3c-1.7,1.7-3.8,2.5-6.4,2.5c-1.8,0-3.5-0.5-5-1.4s-2.6-2.3-3.3-3.9
			c-0.3-0.7-0.5-1.4-0.6-2.1c-0.1-0.7-0.2-1.8-0.2-3.1v-13.4l2.3-0.5V147.5z M298.6,145.7c-1.8,0-3.4,0.7-4.7,2
			c-1.3,1.3-1.9,2.9-1.9,4.9c0,1.9,0.6,3.5,1.9,4.8c1.3,1.3,2.9,2,4.7,2c1.9,0,3.4-0.7,4.7-2c1.3-1.3,1.9-2.9,1.9-4.9
			c0-1.9-0.6-3.5-1.9-4.8C302.1,146.3,300.5,145.7,298.6,145.7z"/>
		<path class="st3" d="M322.1,158.4c-1.3,1.9-3,2.9-5.4,2.9c-1.5,0-2.7-0.3-3.6-1s-1.5-1.7-1.7-3c-0.1-0.4-0.2-0.8-0.2-1.4
			c0-0.6-0.1-1.3-0.1-2.2v-9.5l2.3-0.5V154c0,0.4,0,0.8,0,1.1c0,0.3,0,0.9,0.1,1.6c0.1,0.7,0.5,1.4,1.1,1.9c0.6,0.5,1.5,0.8,2.5,0.8
			s2-0.3,2.8-0.9c0.8-0.6,1.4-1.4,1.8-2.3c0.2-0.6,0.4-1.5,0.4-2.7v-9.3l2.3-0.5v16.9l-2.3,0.5V158.4z"/>
		<path class="st3" d="M328.8,161.2v-16.9l2.3-0.5v3.8c0.2-0.5,0.5-1,0.8-1.5c0.3-0.4,0.6-0.8,0.9-1.1c0.5-0.5,1.1-0.8,1.9-1.1
			c0.8-0.3,1.7-0.4,2.6-0.4h0.9l-0.9,2.3h-0.7c-1.7,0-3,0.6-4,1.9c-1,1.3-1.5,3.1-1.5,5.3v7.5L328.8,161.2z"/>
		<path class="st3" d="M337.8,163.6l1.8-1.2c0.6,1.2,1.5,2.1,2.4,2.8c1,0.6,2.1,1,3.3,1c1.5,0,2.7-0.5,3.7-1.4
			c1-0.9,1.5-2.1,1.5-3.4c0-1.4-0.5-2.5-1.6-3.5c-1.1-0.9-2.5-1.4-4.1-1.4c-0.7,0-1.3,0.1-1.9,0.3s-1.2,0.5-1.9,1l1-2.3
			c-1.1-0.4-1.9-1.1-2.5-2.1c-0.6-0.9-0.9-2-0.9-3.3c0-1.9,0.6-3.4,1.9-4.7c1.3-1.2,2.9-1.9,4.8-1.9c0.7,0,1.6,0.2,2.6,0.5l1.5-0.2
			l1.8-0.3l1.7-0.6l-0.5,2.2l-1.7-0.1h-0.9c0.2,0.2,0.4,0.4,0.5,0.5c0.1,0.1,0.2,0.2,0.3,0.4c1,1.2,1.5,2.6,1.5,4.1
			c0,1.2-0.3,2.2-0.9,3.2s-1.4,1.6-2.5,2c1.2,0.4,2.2,1.1,3,2.2s1.1,2.3,1.1,3.7c0,2-0.7,3.6-2.1,4.9c-1.4,1.3-3.2,2-5.3,2
			c-1.6,0-3-0.4-4.2-1.1C339.9,166.4,338.8,165.2,337.8,163.6z M345.3,145.4c-1.3,0-2.4,0.4-3.2,1.3c-0.9,0.9-1.3,2-1.3,3.3
			c0,1.3,0.4,2.3,1.3,3.2c0.9,0.9,1.9,1.3,3.2,1.3c1.3,0,2.4-0.4,3.2-1.3c0.9-0.9,1.3-1.9,1.3-3.2c0-1.3-0.4-2.3-1.3-3.2
			C347.7,145.9,346.6,145.4,345.3,145.4z"/>
		<path class="st3" d="M355.9,161.2v-23.9l2.3-0.5v9.6c0.7-1,1.4-1.7,2.3-2.2c0.9-0.5,1.9-0.7,3.2-0.7c1.5,0,2.7,0.3,3.6,1
			c0.9,0.7,1.5,1.7,1.8,3c0.1,0.4,0.1,0.9,0.2,1.4c0,0.5,0,1.3,0,2.2v9.4l-2.3,0.5v-10.3l-0.1-2.3c-0.3-2-1.5-3.1-3.6-3.1
			c-1.1,0-2,0.3-2.9,0.9c-0.8,0.6-1.4,1.3-1.8,2.3c-0.2,0.7-0.3,1.5-0.3,2.7v9.3L355.9,161.2z"/>
	</g>
	<g class="st2">
		<path class="st3" d="M225.4,227.1v-50.5h11.3c3.4,0,6.1,0.2,8.1,0.6c5.5,1.1,9.9,3.9,13.3,8.5c3.4,4.5,5,9.9,5,16.2
			c0,7.9-2.5,14.2-7.4,18.8c-2.5,2.3-5.2,4-7.9,4.9c-2.8,0.9-6.5,1.4-11,1.4H225.4z M230.7,181.4v40.7h6.2c3.8,0,6.7-0.3,8.9-1.1
			c2.1-0.7,4.2-2,6.1-3.9c1.7-1.7,3.1-3.9,4.2-6.7c1.1-2.8,1.6-5.6,1.6-8.5c0-4.9-1.3-9.2-4-12.9c-2.7-3.8-6-6.1-10.2-7
			c-1.5-0.4-3.8-0.6-6.8-0.6H230.7z"/>
		<path class="st3" d="M294,206.7v-3.9c0-0.7,0-1.4,0-2.2c0-0.8-0.2-1.5-0.5-2.2c-1.1-2.7-4.1-4-9-4c-1.9,0-3.6,0.2-5.1,0.5
			c-1.5,0.3-3.1,0.9-4.8,1.6l-1.6-4l2.8-1c1.2-0.4,2.5-0.7,4-0.9c1.4-0.2,3-0.3,4.7-0.3c5,0,8.6,0.9,10.9,2.8c2.2,1.9,3.4,4.9,3.4,9
			v2.9v21.5l-4.6,1.1V223c-2.7,3.4-6.3,5-10.7,5c-4,0-7.4-1.2-10.2-3.7c-2.7-2.5-4.1-5.6-4.1-9.5c0-3.8,1.3-6.9,3.9-9.3
			c2.6-2.4,6-3.6,10.1-3.6c2.2,0,4.3,0.4,6.2,1.3C291.2,204,292.8,205.2,294,206.7z M283.6,205.9c-3,0-5.4,0.8-7.2,2.5
			c-1.8,1.7-2.8,3.9-2.8,6.5c0,2.6,1,4.8,2.9,6.5c1.9,1.7,4.4,2.6,7.4,2.6c2.9,0,5.3-0.9,7.2-2.6c1.9-1.7,2.9-3.9,2.9-6.6
			c0-2.6-1-4.8-2.9-6.5C289.1,206.8,286.6,205.9,283.6,205.9z"/>
		<path class="st3" d="M308,227.7v-35.9l4.8-1v5.7c1.4-2.1,3-3.7,4.8-4.6c1.8-1,4-1.5,6.6-1.5c3.2,0,5.8,0.7,7.7,2.2
			c2,1.4,3.2,3.6,3.7,6.4c0.3,1.8,0.4,4.3,0.4,7.7v20l-4.8,1.1v-21.8l-0.2-4.8c-0.6-4.3-3.2-6.5-7.7-6.5c-2.2,0-4.2,0.6-6,1.8
			s-3.1,2.8-3.9,4.9c-0.5,1.4-0.7,3.2-0.7,5.7v19.6L308,227.7z"/>
		<path class="st3" d="M375,194.4l-3.4,3.2l-1.8-1.2c-1.9-1.2-4.2-1.8-7-1.8c-4.1,0-7.4,1.4-10.2,4.1c-2.7,2.7-4.1,6.2-4.1,10.3
			c0,4.2,1.4,7.7,4.1,10.5c2.7,2.8,6.1,4.2,10,4.2c1.8,0,3.6-0.4,5.3-1.1c0.7-0.3,1.3-0.6,1.9-0.9c0.6-0.3,1.3-1,2.3-1.8l3.2,3.4
			c-1.1,0.9-2,1.6-2.7,2c-1.2,0.8-2.7,1.5-4.5,1.9c-1.8,0.5-3.6,0.7-5.5,0.7c-5.5,0-10-1.8-13.7-5.4c-3.6-3.6-5.5-8.1-5.5-13.5
			c0-5.3,1.8-9.8,5.4-13.4c3.6-3.6,8.1-5.4,13.5-5.4c1.3,0,2.6,0.1,3.8,0.3c1.2,0.2,2.4,0.5,3.4,0.9
			C371.1,192,372.9,192.9,375,194.4z"/>
		<path class="st3" d="M414.5,198.3l-28.4,17.2c0.5,1,1,1.7,1.3,2.2c0.4,0.5,0.8,1,1.3,1.6c2.9,2.9,6.3,4.3,10.2,4.3
			c2.2,0,4.2-0.5,6.2-1.5c1.9-1,3.8-2.7,5.7-5l3.7,2.9c-0.4,0.5-0.9,1.1-1.5,1.8c-0.4,0.5-0.9,0.9-1.4,1.4c-3.7,3.2-8,4.8-12.8,4.8
			c-5.4,0-9.9-1.8-13.6-5.4c-3.6-3.6-5.4-8.1-5.4-13.5s1.8-9.9,5.5-13.5c3.6-3.6,8.2-5.4,13.7-5.4c3.2,0,6,0.6,8.4,1.9
			S412.2,195.5,414.5,198.3z M384.7,211.5l22.4-13.6c-0.7-0.7-1.2-1.2-1.7-1.5c-0.5-0.3-1-0.6-1.5-1c-1.7-0.6-3.4-1-5.2-1
			c-4,0-7.3,1.4-10,4.2c-2.7,2.8-4.1,6.2-4.1,10.3c0,0.4,0,0.7,0,1S384.6,210.8,384.7,211.5z"/>
		<path class="st3" d="M418.1,222.5l3.3-3.3c2.7,2.9,5.6,4.3,9,4.3c2.3,0,4.2-0.6,5.6-1.7s2.1-2.6,2.1-4.5c0-2.9-1.9-4.9-5.7-6.2
			l-4-1.3l-1.5-0.6c-1.6-0.6-2.4-0.9-2.5-0.9c-0.7-0.3-1.6-0.9-2.5-1.6c-1.6-1.4-2.5-3.4-2.5-6c0-3.2,1.1-5.7,3.2-7.6s5-2.9,8.6-2.9
			c2.6,0,4.7,0.3,6.4,1c1.7,0.6,3.5,1.8,5.4,3.5l-2.8,3.3c-2.8-2.4-5.6-3.6-8.6-3.6c-2.1,0-3.9,0.6-5.3,1.7
			c-1.4,1.1-2.1,2.5-2.1,4.1c0,1.3,0.4,2.4,1.3,3.1c0.8,0.7,2.5,1.5,4.8,2.4l3.6,1.3l3.7,1.4c3.6,1.7,5.4,4.6,5.4,8.6
			c0,3.2-1.1,5.8-3.4,7.8c-2.3,2-5.3,3-9,3c-2,0-3.7-0.2-5.2-0.7c-1.5-0.5-2.8-1.1-4.1-2C420.4,224.7,419.3,223.8,418.1,222.5z"/>
		<path class="st3" d="M479.6,194.4l-3.4,3.2l-1.8-1.2c-1.9-1.2-4.2-1.8-7-1.8c-4.1,0-7.4,1.4-10.2,4.1c-2.7,2.7-4.1,6.2-4.1,10.3
			c0,4.2,1.4,7.7,4.1,10.5c2.7,2.8,6.1,4.2,10,4.2c1.8,0,3.6-0.4,5.3-1.1c0.7-0.3,1.3-0.6,1.9-0.9c0.6-0.3,1.3-1,2.3-1.8l3.2,3.4
			c-1.1,0.9-2,1.6-2.7,2c-1.2,0.8-2.7,1.5-4.5,1.9c-1.8,0.5-3.6,0.7-5.5,0.7c-5.5,0-10-1.8-13.7-5.4c-3.6-3.6-5.5-8.1-5.5-13.5
			c0-5.3,1.8-9.8,5.4-13.4c3.6-3.6,8.1-5.4,13.5-5.4c1.3,0,2.6,0.1,3.8,0.3c1.2,0.2,2.4,0.5,3.4,0.9
			C475.7,192,477.4,192.9,479.6,194.4z"/>
		<path class="st3" d="M486.2,227.7V177l4.8-1v20.4c1.4-2.1,3-3.7,4.9-4.6c1.8-1,4.1-1.5,6.7-1.5c3.1,0,5.7,0.7,7.7,2.2
			c2,1.5,3.2,3.6,3.7,6.3c0.2,0.9,0.3,1.9,0.3,2.9c0,1.1,0.1,2.7,0.1,4.8v20l-4.8,1.1v-21.8l-0.3-4.8c-0.6-4.3-3.1-6.5-7.7-6.5
			c-2.3,0-4.3,0.6-6.1,1.8s-3,2.8-3.8,4.9c-0.5,1.4-0.7,3.3-0.7,5.7v19.6L486.2,227.7z"/>
		<path class="st3" d="M522,209.1c0-5.4,1.8-9.8,5.5-13.4c3.6-3.6,8.1-5.4,13.4-5.4c5.4,0,9.9,1.8,13.6,5.4
			c3.6,3.6,5.5,8.1,5.5,13.5c0,5.3-1.8,9.8-5.5,13.4c-3.7,3.6-8.2,5.4-13.5,5.4s-9.9-1.8-13.5-5.4C523.8,219,522,214.5,522,209.1z
			 M540.9,194.6c-3.9,0-7.2,1.4-10,4.2c-2.7,2.8-4.1,6.2-4.1,10.3c0,4.1,1.4,7.5,4.1,10.3c2.7,2.8,6,4.2,10,4.2
			c4,0,7.4-1.4,10.1-4.2c2.7-2.8,4.1-6.2,4.1-10.3c0-4.1-1.4-7.6-4.1-10.4C548.3,196,544.9,194.6,540.9,194.6z"/>
		<path class="st3" d="M565.6,209.1c0-5.4,1.8-9.8,5.5-13.4c3.6-3.6,8.1-5.4,13.4-5.4c5.4,0,9.9,1.8,13.6,5.4
			c3.6,3.6,5.5,8.1,5.5,13.5c0,5.3-1.8,9.8-5.5,13.4c-3.7,3.6-8.2,5.4-13.5,5.4s-9.9-1.8-13.5-5.4
			C567.4,219,565.6,214.5,565.6,209.1z M584.5,194.6c-3.9,0-7.2,1.4-10,4.2c-2.7,2.8-4.1,6.2-4.1,10.3c0,4.1,1.4,7.5,4.1,10.3
			c2.7,2.8,6,4.2,10,4.2c4,0,7.4-1.4,10.1-4.2c2.7-2.8,4.1-6.2,4.1-10.3c0-4.1-1.4-7.6-4.1-10.4C591.9,196,588.5,194.6,584.5,194.6z
			"/>
		<path class="st3" d="M611.1,227.7V177l4.8-1v50.5L611.1,227.7z"/>
	</g>
</g>
<g id="New_Dancers">
	<path class="st4" d="M53.8,107.9c0,0,48.7,11.5,64.1,1.8c16.9-10.6,19-63.2,19-63.2s24.2,59.8,10.8,93
		c-18.3,45.6-62.3,66.8-62.3,66.8s24.2-28.7,20.7-53.2C104,137.6,63.7,115,53.8,107.9z"/>
	<path class="st5" d="M168,153.1c-3.4,24.5,20.8,53.3,20.8,53.3s-44-21.2-62.3-66.8c-13.3-33.2,10.8-93,10.8-93s2,52.6,19,63.2
		c15.4,9.7,64.1-1.8,64.1-1.8C210.4,115,170.2,137.6,168,153.1z"/>
</g>
</svg>
