<svg xmlns="http://www.w3.org/2000/svg" viewBox="0 0 227.18 208.12"><defs><style>.cls-1{fill:#20a6df;}.cls-2{fill:#1d509f;}.cls-3{fill:#1e509e;}.cls-3,.cls-4{fill-rule:evenodd;}.cls-4{fill:#25a6df;}</style></defs><title>logo only</title><g id="Dancers"><polygon class="cls-1" points="115.49 0 94.92 59.55 115.57 19.03 136.74 59.01 115.49 0"/><polygon class="cls-1" points="227.18 78.54 164.19 79.06 209.27 84.97 178.68 118.3 227.18 78.54"/><polygon class="cls-1" points="0 78.54 63 79.06 17.91 84.97 48.51 118.3 0 78.54"/><polygon class="cls-1" points="184.46 207.64 132.72 171.7 175.47 193.6 166.81 147.46 184.46 207.64"/><polygon class="cls-1" points="49.5 208.12 101.29 172.25 58.51 194.09 67.23 147.96 49.5 208.12"/><circle class="cls-1" cx="142.34" cy="81.74" r="9.92"/><circle class="cls-2" cx="91.36" cy="82.47" r="9.92"/></g><g id="New_Dancers" data-name="New Dancers"><path class="cls-3" d="M66.19,110.25s41.19,9.71,54.24,1.52c14.32-9,16-53.47,16-53.47s20.43,50.6,9.17,78.68c-15.48,38.58-52.71,56.53-52.71,56.53s20.45-24.33,17.57-45.07C108.67,135.32,74.59,116.24,66.19,110.25Z" transform="translate(-20.71 -18.97)"/><path class="cls-4" d="M162.78,148.44c-2.89,20.74,17.57,45.07,17.57,45.07S143.11,175.56,127.64,137C116.37,108.9,136.8,58.3,136.8,58.3s1.72,44.49,16,53.47c13,8.19,54.23-1.52,54.23-1.52C198.69,116.24,164.6,135.32,162.78,148.44Z" transform="translate(-20.71 -18.97)"/></g></svg>